<?xml version="1.0" standalone="no"?>
<!DOCTYPE svg PUBLIC "-//W3C//DTD SVG 20010904//EN"
 "http://www.w3.org/TR/2001/REC-SVG-20010904/DTD/svg10.dtd">
<svg version="1.0" xmlns="http://www.w3.org/2000/svg"
 width="577.000000pt" height="433.000000pt" viewBox="0 0 577.000000 433.000000"
 preserveAspectRatio="xMidYMid meet">

<g transform="translate(0.000000,433.000000) scale(0.100000,-0.100000)"
fill="#000000" stroke="none">
<path d="M3282 2768 c-28 -28 -1 -75 37 -63 11 3 23 15 26 26 12 38 -35 65
-63 37z"/>
<path d="M3432 2771 c-19 -11 -11 -45 11 -49 9 -2 20 4 23 13 9 21 -16 47 -34
36z"/>
<path d="M3106 2738 c-23 -32 -20 -55 9 -74 23 -15 27 -15 50 0 32 21 33 59 3
80 -30 22 -44 20 -62 -6z"/>
<path d="M2891 2683 c-34 -42 -7 -93 49 -93 55 0 82 74 38 104 -33 23 -64 19
-87 -11z"/>
<path d="M2667 2612 c-18 -19 -22 -59 -9 -78 4 -6 18 -17 30 -23 32 -17 75 1
91 36 10 23 9 31 -7 52 -25 34 -80 40 -105 13z"/>
<path d="M3161 2501 c-14 -25 -5 -48 20 -56 27 -9 51 13 47 44 -4 34 -51 43
-67 12z"/>
<path d="M3300 2495 c0 -18 5 -25 19 -25 24 0 33 13 25 34 -10 27 -44 20 -44
-9z"/>
<path d="M2419 2470 c-23 -23 -29 -35 -23 -52 15 -52 60 -76 105 -58 57 24 59
109 4 130 -41 15 -54 12 -86 -20z"/>
<path d="M2982 2483 c-22 -9 -34 -41 -22 -63 8 -14 21 -20 45 -20 29 0 36 4
41 25 10 41 -26 73 -64 58z"/>
<path d="M2784 2402 c-47 -31 -33 -105 22 -110 19 -2 36 3 44 13 38 46 -18
130 -66 97z"/>
<path d="M2210 2353 c-33 -12 -60 -47 -60 -78 0 -61 55 -104 107 -84 36 14 52
38 53 80 0 51 -56 98 -100 82z"/>
<path d="M3195 2346 c-16 -12 -17 -16 -6 -30 7 -9 19 -16 26 -16 19 0 28 32
12 47 -11 11 -16 11 -32 -1z"/>
<path d="M2558 2284 c-35 -19 -45 -56 -24 -89 23 -35 61 -42 94 -18 39 29 41
74 6 102 -31 25 -40 25 -76 5z"/>
<path d="M3024 2275 c-4 -9 -2 -21 4 -27 15 -15 44 -1 40 19 -4 23 -36 29 -44
8z"/>
<path d="M2827 2199 c-23 -13 -22 -56 2 -69 25 -13 67 19 58 43 -9 24 -40 37
-60 26z"/>
<path d="M1963 2165 c-102 -44 -43 -190 63 -155 66 22 82 80 37 129 -35 37
-60 44 -100 26z"/>
<path d="M2352 2127 c-60 -64 22 -161 91 -107 36 28 38 91 5 114 -32 23 -71
20 -96 -7z"/>
<path d="M2662 2068 c-7 -7 -12 -21 -12 -33 0 -44 60 -63 80 -26 14 27 13 37
-6 55 -18 19 -45 21 -62 4z"/>
<path d="M2155 1965 c-32 -31 -32 -69 1 -102 20 -20 31 -24 57 -19 66 13 90
87 41 125 -35 28 -69 26 -99 -4z"/>
<path d="M1699 1934 c-52 -56 -16 -154 58 -154 46 0 72 16 87 52 17 39 10 71
-21 103 -35 35 -91 34 -124 -1z"/>
<path d="M2502 1923 c-38 -15 -34 -71 8 -93 27 -14 69 7 77 38 10 40 -41 73
-85 55z"/>
<path d="M3578 1813 c-109 -41 -179 -117 -200 -214 -9 -45 -8 -64 6 -114 15
-49 28 -70 76 -117 49 -48 70 -60 130 -79 99 -30 179 -23 268 22 217 111 212
385 -8 488 -72 34 -201 40 -272 14z m232 -94 c56 -25 77 -44 101 -91 64 -126
-49 -268 -213 -268 -140 0 -255 111 -234 225 9 48 77 121 131 140 60 21 161
19 215 -6z"/>
<path d="M3626 1643 c-2 -10 -7 -43 -11 -73 -3 -30 -8 -67 -11 -82 -5 -25 -3
-28 20 -28 16 0 26 6 26 14 0 24 21 30 27 7 4 -14 13 -21 30 -21 22 0 24 3 19
28 -7 33 -26 154 -26 165 0 4 -15 7 -34 7 -24 0 -36 -5 -40 -17z m40 -111
c-11 -10 -14 3 -7 38 l6 35 3 -33 c2 -19 1 -36 -2 -40z"/>
<path d="M3740 1560 l0 -100 25 0 25 0 0 100 0 100 -25 0 -25 0 0 -100z"/>
<path d="M1965 1765 c-52 -51 -15 -135 59 -135 42 0 76 37 76 82 0 39 -40 78
-80 78 -19 0 -40 -9 -55 -25z"/>
<path d="M2326 1758 c-9 -12 -16 -30 -16 -39 0 -21 46 -59 70 -59 20 0 60 40
60 61 0 31 -30 59 -65 59 -24 0 -39 -7 -49 -22z"/>
<path d="M2730 1539 c0 -98 0 -100 23 -97 18 2 22 9 22 40 0 52 19 52 23 1 3
-35 7 -43 23 -43 18 0 19 8 19 100 0 93 -1 100 -20 100 -16 0 -20 -7 -20 -36
0 -24 -4 -34 -12 -32 -7 3 -12 19 -12 36 1 27 -2 32 -22 32 -24 0 -24 -1 -24
-101z"/>
<path d="M2888 1599 c-23 -13 -24 -59 -2 -59 9 0 18 9 21 20 7 25 23 26 23 1
0 -11 -12 -23 -31 -31 -27 -11 -30 -17 -27 -49 3 -36 4 -36 51 -38 l47 -2 0
74 c0 63 -3 76 -19 85 -24 12 -41 12 -63 -1z m42 -104 c0 -14 -4 -25 -10 -25
-11 0 -14 33 -3 43 11 11 13 8 13 -18z"/>
<path d="M3018 1599 c-14 -8 -18 -24 -18 -72 0 -36 5 -68 12 -75 18 -18 63
-14 81 6 25 28 22 52 -8 52 -18 0 -25 -5 -25 -20 0 -11 -4 -20 -10 -20 -5 0
-10 11 -10 24 0 21 6 25 33 28 40 4 48 37 18 67 -23 23 -46 26 -73 10z m42
-34 c0 -8 -4 -15 -10 -15 -5 0 -10 7 -10 15 0 8 5 15 10 15 6 0 10 -7 10 -15z"/>
<path d="M3163 1603 l-33 -4 0 -80 c0 -72 2 -79 20 -79 18 0 20 7 20 70 0 40
4 70 10 70 6 0 10 -30 10 -70 0 -68 1 -70 25 -70 24 0 25 2 25 70 0 40 4 70
10 70 6 0 10 -30 10 -70 0 -63 2 -70 20 -70 18 0 20 7 20 79 0 64 -3 80 -16
85 -9 4 -23 1 -31 -5 -10 -9 -17 -9 -25 -1 -7 7 -17 11 -22 10 -6 0 -26 -3
-43 -5z"/>
<path d="M2179 1582 c-27 -23 -30 -75 -6 -99 9 -9 30 -16 46 -16 67 0 95 72
45 112 -33 26 -55 26 -85 3z"/>
<path d="M1785 1565 c-17 -17 -25 -35 -25 -60 0 -47 14 -71 51 -90 65 -34 139
26 125 101 -14 69 -102 98 -151 49z"/>
<path d="M2022 1387 c-12 -13 -22 -36 -22 -51 0 -34 41 -76 75 -76 35 0 75 42
75 79 0 61 -86 93 -128 48z"/>
<path d="M1850 1195 c-53 -56 -7 -144 69 -131 101 16 91 156 -10 156 -25 0
-43 -8 -59 -25z"/>
</g>
</svg>
